HIERARCHY
ROOT hip
{
  OFFSET 0 0 0
  CHANNELS 6 Xposition Yposition Zposition Zrotation Yrotation Xrotation
  JOINT abdomen
  {
    OFFSET 0 20.6881 -0.73152
    CHANNELS 3 Zrotation Xrotation Yrotation
    JOINT chest
    {
      OFFSET 0 11.7043 -0.48768
      CHANNELS 3 Zrotation Xrotation Yrotation
      JOINT neck
      {
        OFFSET 0 22.1894 -2.19456
        CHANNELS 3 Zrotation Xrotation Yrotation
        JOINT head
        {
          OFFSET -0.24384 7.07133 1.2192
          CHANNELS 3 Zrotation Xrotation Yrotation
          JOINT leftEye
          {
            OFFSET 4.14528 8.04674 8.04672
            CHANNELS 3 Zrotation Xrotation Yrotation
            End Site
            {
              OFFSET 1 0 0
            }
          }
          JOINT rightEye
          {
            OFFSET -3.6576 8.04674 8.04672
            CHANNELS 3 Zrotation Xrotation Yrotation
            End Site
            {
              OFFSET 1 0 0
            }
          }
        }
      }
      JOINT rCollar
      {
        OFFSET -2.68224 19.2634 -4.8768
        CHANNELS 3 Zrotation Xrotation Yrotation
        JOINT rShldr
        {
          OFFSET -8.77824 -1.95073 1.46304
          CHANNELS 3 Zrotation Xrotation Yrotation
          JOINT rForeArm
          {
            OFFSET -28.1742 -1.7115 0.48768
            CHANNELS 3 Zrotation Xrotation Yrotation
            JOINT rHand
            {
              OFFSET -22.5879 0.773209 7.07136
              CHANNELS 3 Zrotation Xrotation Yrotation
              JOINT rThumb1
              {
                OFFSET -1.2192 -0.487915 3.41376
                CHANNELS 3 Zrotation Xrotation Yrotation
                JOINT rThumb2
                {
                  OFFSET -3.37035 -0.52449 3.41376
                  CHANNELS 3 Zrotation Xrotation Yrotation
                  End Site
                  {
                    OFFSET -1.78271 -1.18214 1.43049
                  }
                }
              }
              JOINT rIndex1
              {
                OFFSET -7.75947 0.938293 5.60832
                CHANNELS 3 Zrotation Xrotation Yrotation
                JOINT rIndex2
                {
                  OFFSET -2.54057 -0.884171 1.56538
                  CHANNELS 3 Zrotation Xrotation Yrotation
                  End Site
                  {
                    OFFSET -1.62519 -0.234802 1.16502
                  }
                }
              }
              JOINT rMid1
              {
                OFFSET -8.24714 1.18213 3.41376
                CHANNELS 3 Zrotation Xrotation Yrotation
                JOINT rMid2
                {
                  OFFSET -3.10165 -0.590103 1.0647
                  CHANNELS 3 Zrotation Xrotation Yrotation
                  End Site
                  {
                    OFFSET -2.48547 -0.328903 0.83742
                  }
                }
              }
              JOINT rRing1
              {
                OFFSET -8.82822 0.546677 1.51678
                CHANNELS 3 Zrotation Xrotation Yrotation
                JOINT rRing2
                {
                  OFFSET -2.60934 -0.819778 -0.0198488
                  CHANNELS 3 Zrotation Xrotation Yrotation
                  End Site
                  {
                    OFFSET -2.33842 -0.294052 0.168128
                  }
                }
              }
              JOINT rPinky1
              {
                OFFSET -8.27202 -0.0477905 -0.4584
                CHANNELS 3 Zrotation Xrotation Yrotation
                JOINT rPinky2
                {
                  OFFSET -1.82734 -0.647385 -0.700984
                  CHANNELS 3 Zrotation Xrotation Yrotation
                  End Site
                  {
                    OFFSET -1.69225 -0.51767 -0.607171
                  }
                }
              }
            }
          }
        }
      }
      JOINT lCollar
      {
        OFFSET 2.68224 19.2634 -4.8768
        CHANNELS 3 Zrotation Xrotation Yrotation
        JOINT lShldr
        {
          OFFSET 8.77824 -1.95073 1.46304
          CHANNELS 3 Zrotation Xrotation Yrotation
          JOINT lForeArm
          {
            OFFSET 28.1742 -1.7115 0.48768
            CHANNELS 3 Zrotation Xrotation Yrotation
            JOINT lHand
            {
              OFFSET 22.5879 0.773209 7.07136
              CHANNELS 3 Zrotation Xrotation Yrotation
              JOINT lThumb1
              {
                OFFSET 1.2192 -0.487915 3.41376
                CHANNELS 3 Zrotation Xrotation Yrotation
                JOINT lThumb2
                {
                  OFFSET 3.37035 -0.52449 3.41376
                  CHANNELS 3 Zrotation Xrotation Yrotation
                  End Site
                  {
                    OFFSET 1.78271 -1.18214 1.43049
                  }
                }
              }
              JOINT lIndex1
              {
                OFFSET 7.75947 0.938293 5.60832
                CHANNELS 3 Zrotation Xrotation Yrotation
                JOINT lIndex2
                {
                  OFFSET 2.54057 -0.884171 1.56538
                  CHANNELS 3 Zrotation Xrotation Yrotation
                  End Site
                  {
                    OFFSET 1.62519 -0.234802 1.16502
                  }
                }
              }
              JOINT lMid1
              {
                OFFSET 8.24714 1.18213 3.41376
                CHANNELS 3 Zrotation Xrotation Yrotation
                JOINT lMid2
                {
                  OFFSET 3.10165 -0.590103 1.0647
                  CHANNELS 3 Zrotation Xrotation Yrotation
                  End Site
                  {
                    OFFSET 2.48547 -0.328903 0.83742
                  }
                }
              }
              JOINT lRing1
              {
                OFFSET 8.82822 0.546677 1.51678
                CHANNELS 3 Zrotation Xrotation Yrotation
                JOINT lRing2
                {
                  OFFSET 2.60934 -0.819778 -0.0198488
                  CHANNELS 3 Zrotation Xrotation Yrotation
                  End Site
                  {
                    OFFSET 2.33842 -0.294052 0.168128
                  }
                }
              }
              JOINT lPinky1
              {
                OFFSET 8.27202 -0.0477905 -0.4584
                CHANNELS 3 Zrotation Xrotation Yrotation
                JOINT lPinky2
                {
                  OFFSET 1.82734 -0.647385 -0.700984
                  CHANNELS 3 Zrotation Xrotation Yrotation
                  End Site
                  {
                    OFFSET 1.69225 -0.51767 -0.607171
                  }
                }
              }
            }
          }
        }
      }
    }
  }
  JOINT rButtock
  {
    OFFSET -8.77824 4.35084 1.2192
    CHANNELS 3 Zrotation Xrotation Yrotation
    JOINT rThigh
    {
      OFFSET 0 -1.70687 -2.19456
      CHANNELS 3 Zrotation Xrotation Yrotation
      JOINT rShin
      {
        OFFSET 0 -36.8199 0.73152
        CHANNELS 3 Zrotation Xrotation Yrotation
        JOINT rFoot
        {
          OFFSET 0.73152 -45.1104 -5.12064
          CHANNELS 3 Zrotation Xrotation Yrotation
          End Site
          {
            OFFSET -1.1221 -3.69964 12.103
          }
        }
      }
    }
  }
  JOINT lButtock
  {
    OFFSET 8.77824 4.35084 1.2192
    CHANNELS 3 Zrotation Xrotation Yrotation
    JOINT lThigh
    {
      OFFSET 0 -1.70687 -2.19456
      CHANNELS 3 Zrotation Xrotation Yrotation
      JOINT lShin
      {
        OFFSET 0 -36.8199 0.73152
        CHANNELS 3 Zrotation Xrotation Yrotation
        JOINT lFoot
        {
          OFFSET -0.73152 -45.1104 -5.12064
          CHANNELS 3 Zrotation Xrotation Yrotation
          End Site
          {
            OFFSET 1.1221 -3.69964 12.103
          }
        }
      }
    }
  }
}
MOTION
Frames:	4
Frame Time:	0.03333
0.25870000487956496 76.04350131298676 2.696400095866243 -4.077700614929199 -1.1053000688552856 -11.47760009765625 9.624999046325684 37.59259796142578 5.594719409942627 -2.0882503986358643 -9.395061492919922 2.0586800575256348 -7.091320991516113 15.395401000976562 -5.696969509124756 10.33899974822998 -31.88359832763672 -8.388860702514648 -0.0 0.0 -0.0 -0.0 0.0 -0.0 1.5034898510641465e-13 -1.622040040260772e-13 1.5117600097105943e-13 35.09699249267578 35.24340057373047 20.407197952270508 -26.664199829101562 -25.275001525878906 59.72270202636719 -0.05632590875029564 6.7569804191589355 0.9541031122207642 7.167129667529082e-10 5.779490219737227e-09 -8.373189364085931e-10 1.2345798827695376e-09 9.994799654577946e-09 -1.4495299405226092e-09 7.167189619572412e-10 5.779459577581747e-09 -8.373219340107596e-10 7.730909824371338 5.474879741668701 0.4173140823841095 7.167129667529082e-10 5.779459577581747e-09 -8.373129967154114e-10 2.9055399894714355 0.9651829600334167 0.10290199518203735 7.167169635557968e-10 5.7794800056854e-09 -8.373209348100374e-10 10.27859878540039 0.73180091381073 0.025912316516041756 7.167139659536303e-10 5.7794800056854e-09 -8.373100546243961e-10 2.221669912338257 -0.733487069606781 -0.208919957280159 1.5022400370098138e-13 -1.6221298935158168e-13 1.5092700038962098e-13 -59.48339080810547 31.70330238342285 -21.857200622558594 28.09149742126465 -31.18739891052246 -69.147705078125 1.1348999738693237 -28.761701583862305 4.424229621887207 -1.5057199931334253e-10 -9.633640551953704e-09 1.166479912662055e-09 -2.826379963405401e-10 -1.678069949662131e-08 2.007549904092798e-09 -1.5057098623483256e-10 -9.633629005634248e-09 1.166479912662055e-09 -7.730909824371338 5.474879741668701 -0.4173140823841095 -1.505650049082874e-10 -9.633640551953704e-09 1.1664699206548335e-09 -2.9055399894714355 0.9651829600334167 -0.10290199518203735 -1.505729985140647e-10 -9.633629005634248e-09 1.1664699206548335e-09 -10.27859878540039 0.73180091381073 -0.025912316516041756 -1.5057098623483256e-10 -9.633640551953704e-09 1.1664599286476118e-09 -2.221669912338257 -0.733487069606781 0.208919957280159 -2.0321699480147914e-16 0.0 -3.8825099822884138e-19 6.747739791870117 -29.457300186157227 -2.214740037918091 -0.9944209456443787 63.08330154418945 2.5502896308898926 -3.1997601985931396 -17.485002517700195 -5.286821365356445 2.0321699480147914e-16 0.0 3.8825099822884138e-19 105.11699676513672 -81.27983093261719 100.41300201416016 177.1069793701172 52.790401458740234 -177.42599487304688 0.7991060018539429 7.170719146728516 3.407170295715332
0.5676000058484459 77.5360000994721 5.208700126617608 -2.885200023651123 -4.753300189971924 -15.491597175598145 6.6746296882629395 41.1099967956543 8.812410354614258 -2.872109889984131 -9.110831260681152 2.5770599842071533 -7.150860786437988 15.961004257202148 -5.620830059051514 10.471200942993164 -31.357206344604492 -8.293306350708008 -0.0 0.0 -0.0 -0.0 0.0 -0.0 1.2843299015442844e-13 -5.0985098440240254e-14 6.950629714798026e-14 34.6796989440918 35.71780776977539 21.367401123046875 -26.392398834228516 -24.486103057861328 58.45209884643555 -0.0532802976667881 6.575100421905518 0.9281838536262512 -6.030569793535889e-11 3.832340222942321e-09 -6.699369392570986e-10 -1.072039956806492e-10 6.615919811991944e-09 -1.1575599367930067e-09 -6.029799576312556e-11 3.8323295648012845e-09 -6.699459320635981e-10 7.730909824371338 5.474879741668701 0.4173140823841095 -6.030629468023463e-11 3.8323295648012845e-09 -6.699349963668055e-10 2.9055399894714355 0.9651829600334167 0.10290199518203735 -6.030149990454703e-11 3.832340222942321e-09 -6.699380494801233e-10 10.27859878540039 0.73180091381073 0.025912316516041756 -6.030729388095679e-11 3.832340222942321e-09 -6.699290011624726e-10 2.221669912338257 -0.733487069606781 -0.208919957280159 1.2825600770229734e-13 -5.099270140797481e-14 6.924850097641752e-14 -60.85569763183594 31.117101669311523 -19.45009994506836 27.900798797607422 -30.036094665527344 -67.28589630126953 1.0646698474884033 -27.93979835510254 4.275009632110596 -3.451809948984419e-10 -5.242260403548471e-09 1.226389961805907e-10 -5.96509952544011e-10 -9.01850949475147e-09 2.0142398859945843e-10 -3.451839925006084e-10 -5.242249301318225e-09 1.2264499138492369e-10 -7.730909824371338 5.474879741668701 -0.4173140823841095 -3.451760266504067e-10 -5.242260403548471e-09 1.2263200177553557e-10 -2.9055399894714355 0.9651829600334167 -0.10290199518203735 -3.451829655443106e-10 -5.242249301318225e-09 1.226340001769799e-10 -10.27859878540039 0.73180091381073 -0.025912316516041756 -3.4518199409916406e-10 -5.242260403548471e-09 1.2262599269341479e-10 -2.221669912338257 -0.733487069606781 0.208919957280159 -2.0321699480147914e-16 0.0 -3.8825099822884138e-19 5.649449825286865 -22.328502655029297 -0.9346380233764648 -0.7734139561653137 60.71369934082031 2.682839870452881 -2.683579921722412 -18.455204010009766 -3.6898698806762695 2.0321699480147914e-16 0.0 3.8825099822884138e-19 128.56700134277344 -79.54601287841797 121.99000549316406 177.00100708007812 54.623802185058594 -177.19699096679688 1.3172498941421509 5.876730442047119 4.946829795837402
0.8512999971941385 79.1141016468252 7.516400133233949 -1.3036998510360718 -7.9430999755859375 -19.090999603271484 3.0356101989746094 43.961204528808594 12.289602279663086 -3.6683599948883057 -8.771309852600098 3.041989803314209 -7.19140100479126 16.494998931884766 -5.5057501792907715 10.380498886108398 -30.27899932861328 -8.20667839050293 -0.0 0.0 -0.0 -0.0 0.0 -0.0 1.0942799672040288e-13 6.838350415441785e-14 -4.596899981978639e-14 34.25529861450195 36.49259948730469 22.227596282958984 -26.127901077270508 -23.767196655273438 57.30229949951172 -0.05078309401869774 6.417761325836182 0.9057859778404236 -9.830619651651773e-10 -6.51627973802249e-10 -1.363759938310949e-10 -1.6988399575978974e-09 -1.1480999484447807e-09 -2.3187099462695926e-10 -9.830539715594e-10 -6.516149841928609e-10 -1.363919949204373e-10 7.730909824371338 5.474879741668701 0.4173140823841095 -9.830639635666216e-10 -6.516270301126781e-10 -1.3637900531104918e-10 2.9055399894714355 0.9651829600334167 0.10290199518203735 -9.830579683622886e-10 -6.516259198896535e-10 -1.3637700690960486e-10 10.27859878540039 0.73180091381073 0.025912316516041756 -9.830670721910906e-10 -6.51621978597916e-10 -1.3636899942603975e-10 2.221669912338257 -0.733487069606781 -0.208919957280159 1.0924299117219538e-13 6.83788014274947e-14 -4.6217400701898184e-14 -62.162803649902344 30.734600067138672 -16.959699630737305 27.639698028564453 -28.777700424194336 -65.30139923095703 0.9779999852180481 -26.897201538085938 4.08819055557251 -4.343330139988666e-10 9.82027931195617e-11 -8.148489660797509e-10 -7.306439342436022e-10 3.170249895934063e-10 -1.4178899165884218e-09 -4.343410353602195e-10 9.820679686134426e-11 -8.148359764703628e-10 -7.730909824371338 5.474879741668701 -0.4173140823841095 -4.3432996088554887e-10 9.820660257231495e-11 -8.148580143974016e-10 -2.9055399894714355 0.9651829600334167 -0.10290199518203735 -4.343369830461796e-10 9.821109897556468e-11 -8.148549612840839e-10 -10.27859878540039 0.73180091381073 -0.025912316516041756 -4.343349846447353e-10 9.820880220168249e-11 -8.148580143974016e-10 -2.221669912338257 -0.733487069606781 0.208919957280159 -2.0321699480147914e-16 0.0 -3.8825099822884138e-19 3.811760187149048 -15.625198364257812 0.1846640408039093 -0.5857250690460205 58.128597259521484 2.722900152206421 -2.408320188522339 -18.79490089416504 -2.8243000507354736 2.0321699480147914e-16 0.0 3.8825099822884138e-19 142.85499572753906 -77.48030090332031 133.70999145507812 176.7799835205078 58.230098724365234 -176.7589874267578 1.978259801864624 4.166750431060791 7.107909202575684
1.000699993262067 80.61099907513604 9.542200090113882 0.0763000100851059 -10.389801025390625 -22.303401947021484 -0.20795100927352905 46.32360076904297 15.251798629760742 -4.50922966003418 -8.450309753417969 3.3481099605560303 -7.053141117095947 16.929698944091797 -5.36051082611084 9.736531257629395 -28.63360023498535 -8.221231460571289 -0.0 0.0 -0.0 -0.0 0.0 -0.0 9.056819828606386e-14 5.009409770675988e-14 3.494569949169177e-14 33.700599670410156 37.66469955444336 22.918298721313477 -25.897397994995117 -23.174701690673828 56.34649658203125 -0.052668098360300064 6.535070896148682 0.9224879145622253 -3.5080899296602297e-10 1.4250799429404992e-09 -4.0011999269395915e-10 -6.069870162050961e-10 2.452339886716004e-09 -6.900869875536841e-10 -3.508049961631343e-10 1.4250899349477208e-09 -4.001349807047916e-10 7.730909824371338 5.474879741668701 0.4173140823841095 -3.508109913674673e-10 1.4250799429404992e-09 -4.001239894968478e-10 2.9055399894714355 0.9651829600334167 0.10290199518203735 -3.5080699456457864e-10 1.4250799429404992e-09 -4.0011999269395915e-10 10.27859878540039 0.73180091381073 0.025912316516041756 -3.508129897689116e-10 1.4250799429404992e-09 -4.0010900148601536e-10 2.221669912338257 -0.733487069606781 -0.208919957280159 9.040629979665746e-14 5.009220035295803e-14 3.4635099286197193e-14 -63.455299377441406 30.697702407836914 -14.350099563598633 27.328001022338867 -27.49629783630371 -63.22629928588867 0.8399220705032349 -25.13039779663086 3.7787203788757324 -5.276919456953522e-10 -1.2213000610827862e-09 -1.4052499615335723e-11 -9.081699836599455e-10 -2.050360103922344e-09 -3.549570012917336e-11 -5.276999948122807e-10 -1.2213000610827862e-09 -1.4040399919090785e-11 -7.730909824371338 5.474879741668701 -0.4173140823841095 -5.2769094649463e-10 -1.2213000610827862e-09 -1.4061300734891091e-11 -2.9055399894714355 0.9651829600334167 -0.10290199518203735 -5.276969972101142e-10 -1.2212899580532621e-09 -1.4060299799445453e-11 -10.27859878540039 0.73180091381073 -0.025912316516041756 -5.276900028050591e-10 -1.2213000610827862e-09 -1.4065598512302824e-11 -2.221669912338257 -0.733487069606781 0.208919957280159 -2.0321699480147914e-16 0.0 -3.8825099822884138e-19 1.854469895362854 -9.508110046386719 0.8729708790779114 -0.4731210172176361 55.491302490234375 2.643970012664795 -2.8581700325012207 -18.047401428222656 -3.7952394485473633 2.0321699480147914e-16 0.0 3.8825099822884138e-19 153.9949951171875 -76.19731903076172 141.68699645996094 176.32798767089844 63.96119689941406 -176.0030059814453 2.4973299503326416 2.316660165786743 9.892600059509277
